<svg xmlns="http://www.w3.org/2000/svg" width="64" height="64" viewBox="0 0 64 64" fill="none">
  <defs>
    <linearGradient id="gradient1" x1="0%" y1="0%" x2="100%" y2="100%">
      <stop offset="0%" stop-color="#00c3ff" />
      <stop offset="100%" stop-color="#7d2ae8" />
    </linearGradient>
    <linearGradient id="gradient2" x1="0%" y1="0%" x2="100%" y2="100%">
      <stop offset="0%" stop-color="#7d2ae8" />
      <stop offset="100%" stop-color="#00ffb3" />
    </linearGradient>
    <filter id="shadow" x="-20%" y="-20%" width="140%" height="140%">
      <feGaussianBlur stdDeviation="2" />
    </filter>
  </defs>
  
  <!-- 背景圆形 -->
  <circle cx="32" cy="32" r="30" fill="#0a1929" />
  
  <!-- 盾牌外形 -->
  <path d="M32 8L14 16V28C14 39.1 21.4 49.3 32 52C42.6 49.3 50 39.1 50 28V16L32 8Z" fill="url(#gradient1)" filter="url(#shadow)" />
  
  <!-- 内部盾牌 -->
  <path d="M32 12L18 18V28C18 37.1 24 45.4 32 48C40 45.4 46 37.1 46 28V18L32 12Z" fill="#0a1929" />
  
  <!-- 锁图标 -->
  <rect x="26" y="24" width="12" height="16" rx="2" fill="url(#gradient2)" />
  <rect x="28" y="18" width="8" height="10" rx="4" stroke="url(#gradient2)" stroke-width="3" fill="none" />
  
  <!-- 钥匙孔 -->
  <circle cx="32" cy="32" r="2" fill="#0a1929" />
  <rect x="31" y="32" width="2" height="4" fill="#0a1929" />
</svg>